<svg height="41" viewBox="0 0 40 41" width="40" xmlns="http://www.w3.org/2000/svg"><g fill="#fff" transform="translate(7 8)"><path d="m4.81 26c-.13 0-.13 0 0 0l-3.77-.26c-.39 0-.78-.26-.91-.65s-.13-.65 0-1.04l5.85-8.45c.65-1.04 1.82-1.69 3.12-1.69h4.16l4.42-6.5c-.91-.78-1.43-1.95-1.43-3.12.13-2.34 1.95-4.29 4.29-4.29s4.29 1.95 4.29 4.29c0 1.17-.52 2.34-1.3 3.12.78 1.69.78 3.64-.39 5.2l-5.98 8.45c-.26.39-.65.52-1.04.39l-5.2-1.04c-.39-.13-.65 0-.91.26l-4.55 4.94c-.13.26-.39.39-.65.39zm-1.82-2.21 1.3.13 4.16-4.55c.78-.78 1.82-1.17 2.86-.91l4.42.91 5.59-7.8c.78-1.04.65-2.6-.13-3.51-.26-.26-.26-.52-.26-.91 0-.26.26-.65.52-.78.65-.39 1.17-1.04 1.17-1.82 0-1.17-.91-2.08-2.08-2.08s-2.08.91-2.08 2.08c0 .78.52 1.56 1.17 1.95.26.13.52.39.52.65.13.26 0 .65-.13.91l-5.46 7.8c-.26.26-.52.52-.91.52h-4.55c-.52 0-1.04.26-1.3.65z"/><path d="m18.85 25.48c-.13 0-.39-.13-.52-.26l-5.46-9.88c-.13-.26 0-.65.26-.78s.65 0 .78.26l5.46 9.88c.13.26 0 .65-.26.78zm-2.73-13.26c-.26 0-.39-.13-.52-.39s.13-.52.39-.65l10.66-3.12c.26-.13.52.13.65.39s-.13.52-.39.65l-10.66 3.12z"/></g></svg>