<svg height="41" viewBox="0 0 46 41" width="46" xmlns="http://www.w3.org/2000/svg"><g transform="translate(0 4)"><path d="m19.9707317 7.59333333c-3.3658537.11333334-6.0585366.45333334-6.0585366.45333334h-.2243902c-.2243903.11333333-2.3560976 1.13333333-4.37560978 6.34666663v.34c.11219512-.1133333.11219512-.1133333.22439025-.1133333 4.48780483-.1133333 8.97560973-.2266667 13.57560973-.2266667 4.7121951 0 9.5365854.1133334 14.2487805.2266667.1121951 0 .2243903 0 .2243903.1133333l-.1121952-.2266666c-2.0195122-5.21333337-4.1512195-6.23333337-4.3756097-6.3466667h-.2243903s-2.6926829-.34-6.0585366-.45333333c-.7853658 0-1.6829268-.11333334-2.5804878-.11333334zm-15.03414633-4.98666666c4.37560975-.22666667 10.09756093-.68 11.78048783-.68 2.5804878 0 2.804878.68 3.1414634 2.94666666v.11333334l.1121951 1.81333333c.7853659 0 1.6829268-.11333333 2.4682927-.11333333-.2243903-2.04-.5609756-3.85333334-.5609756-4.19333334-.1121951-.34-.6731708-1.7-1.2341464-2.04-.1121951 0-.2243902-.11333333-.5609756-.11333333-.5609756-.11333333-1.3463414-.22666667-2.2439024-.22666667-.7853659 0-1.5707317-.11333333-2.4682927 0l-4.4878049-.11333333h-1.6829268c-.67317073.22666667-2.5804878 1.02-4.48780488 2.04-.22439024.11333333-.11219512.68.22439025.56666667zm22.10243903 2.38c.3365854-2.38.5609756-2.94666667 3.1414634-2.94666667 1.6829268 0 7.4048781.34 11.7804878.68.3365854 0 .4487805-.45333333.2243903-.56666667-1.9073171-1.02-3.8146342-1.81333333-4.4878049-2.04h-1.6829269l-4.3756097.11333334h-2.4682927c-.897561 0-1.7951219.11333333-2.2439024.22666666-.2243903 0-.4487805.11333334-.5609756.11333334-.5609757.22666666-1.1219513 1.58666666-1.2341464 2.04-.1121951.34-.3365853 2.15333333-.5609756 4.19333333.897561 0 1.6829268 0 2.4682927.11333333z"/><path d="m45.5512195 3.85333333c-2.6926829-.11333333-13.3512195-.79333333-15.3707317-.79333333-1.5707317 0-1.7951219 0-2.0195122 1.13333333 0 .34.1121951.56666667.4487805.56666667l12.2292683.90666667h.897561l2.4682926-.45333334h.1121952c.4487805-.11333333 1.0097561-.45333333 1.4585366-.79333333.1121951-.22666667 0-.45333333-.2243903-.56666667zm-40.27804877 1.81333334h.78536586l12.22926831-1.02c.3365853 0 .4487805-.34.4487805-.56666667-.2243903-1.02-.5609756-1.13333333-2.0195122-1.13333333-2.0195122 0-12.56585369.68-15.37073174.90666666-.22439024 0-.33658536.34-.11219512.45333334.44878049.34 1.0097561.79333333 1.45853659.79333333h.11219512zm30.29268297 26.63333333v.9066667c0 .4533333.3365853.7933333.7853658.7933333h4.7121951c.4487805 0 .7853659-.34.7853659-.7933333v-.9066667zm6.3951219-.9066667s0-.1133333-.1121951-.1133333v-8.2733333-.2266667c-.1121951-1.2466667-.3365854-2.2666667-.6731707-2.9466667-.4487805-1.9266666-1.4585366-2.72-2.2439025-3.4-.1121951-.1133333-.2243902-.1133333-.3365853-.2266666-.1121952-.1133334-.2243903-.2266667-.3365854-.4533334 1.1219512 0 2.5804878 0 3.1414634-.34.2243902-.1133333.5609756-.2266666.3365854-.7933333-.2243903-.5666667-.2243903-.5666667-.2243903-.68s-.1121951-.4533333-.897561-.5666667c-.7853658-.1133333-1.1219512-.2266666-1.7951219-.34-.6731707-.1133333-1.1219512.1133334-1.0097561.5666667v1.36c0 .2266667-.2243902.4533333-.4487805.4533333-4.7121951-.1133333-9.4243902-.2266666-14.2487805-.2266666-4.4878049 0-9.0878049.1133333-13.46341461.2266666-.22439025 0-.44878049-.2266666-.44878049-.4533333v-1.36c0-.5666667-.44878049-.68-1.0097561-.5666667-.67317073.1133334-1.0097561.2266667-1.79512195.34-.89756097.2266667-.89756097.5666667-1.0097561.68 0 .1133334-.11219512.1133334-.22439024.68-.22439024.5666667.11219512.68.33658537.7933334.56097561.34 2.01951219.34 3.14146341.34-.11219512.1133333-.22439024.34-.44878049.4533333-.11219512.1133333-.22439024.1133333-.33658536.2266667-.33658537.34-.78536586.5666666-1.12195122 1.02-.56097561.68-.89756098 1.36-1.12195122 2.38-.33658537.5666666-.56097561 1.4733333-.67317073 2.72-.11219513.1133333-.11219513.2266666-.11219513.34v8.3866666zm-8.8634146-11.1066666c.6731707-.4533334 1.3463414-.9066667 2.1317073-1.02 1.3463415-.2266667 4.2634146-.9066667 4.6-.9066667l.7853658 1.9266667c0 .2266666-.1121951.7933333-1.2341463.9066666-.4487805.1133334-3.4780488.34-3.702439.34-.2243903 0-.4487805 0-1.0097561-.2266666-.5609756-.34-1.3463415-.7933334-1.5707317-1.02 0 .1133333 0 .1133333 0 0zm-9.6487805 0c2.5804878 0 8.6390244 0 9.2 1.1333333-.7853659.2266667-5.6097561.2266667-7.4048781.4533333 0 0-.2243902-.1133333-.7853658.4533334-.5609756.5666666-1.0097561 1.1333333-1.0097561 1.1333333s-.4487805-.5666667-1.0097561-1.1333333c-.5609756-.5666667-.7853659-.4533334-.7853659-.4533334-1.7951219-.2266666-6.6195122-.2266666-7.404878-.4533333.5609756-1.1333333 6.6195122-1.1333333 9.2-1.1333333zm-15.93170733.9066666c-1.12195122-.1133333-1.23414634-.68-1.23414634-.9066666l.78536585-1.9266667c.33658537 0 3.25365852.68 4.60000002.9066667.7853658.1133333 1.4585366.5666666 2.1317073 1.02-.2243902.1133333-1.0097561.5666666-1.4585366.7933333-.5609756.34-.7853658.2266667-1.0097561.2266667-.2243902.1133333-3.25365852-.1133334-3.81463413-.1133334zm15.93170733 7.14s-12.3414634-.1133333-15.37073172-.1133333c0 0 .78536585-.5666667 1.45853659-1.02.33658536-.2266667.89756093-.34 1.34634143-.34h24.9073171c.5609756 0 1.0097561.1133333 1.3463415.34.6731707.4533333 1.4585366 1.02 1.4585366 1.02-2.8048781 0-15.1463415.1133333-15.1463415.1133333zm12.004878 3.9666667h-2.0195122zm-24.0097561 0h3.2536586zm-6.50731703-.1133333v.9066666c0 .4533334.33658536.7933334.78536585.7933334h4.71219508c.4487805 0 .7853659-.34.7853659-.7933334v-.9066666z"/></g></svg>